<svg width="50" height="50" viewBox="0 0 50 50" fill="none" xmlns="http://www.w3.org/2000/svg">
<circle cx="25" cy="25" r="24" stroke="#FE8F88" stroke-width="2"/>
<circle cx="25" cy="25" r="20" fill="#FE8F88"/>
<path d="M41.5 33.816C41.2229 32.9025 40.2 31.0606 38.3256 31.0013C36.4512 30.9421 35.3275 32.8531 35 33.816" stroke="#012D42" stroke-width="2" stroke-linecap="round"/>
<path d="M15.5 33.816C15.2229 32.9025 14.2 31.0606 12.3256 31.0013C10.4512 30.9421 9.32752 32.8531 9 33.816" stroke="#012D42" stroke-width="2" stroke-linecap="round"/>
<path d="M28.5 33.8146C28.7771 34.7281 29.8 36.57 31.6744 36.6293C33.5488 36.6885 34.6725 34.7775 35 33.8146" stroke="#012D42" stroke-width="2" stroke-linecap="round"/>
<path d="M15.5 33.8146C15.7771 34.7281 16.8 36.57 18.6744 36.6293C20.5488 36.6885 21.6725 34.7775 22 33.8146" stroke="#012D42" stroke-width="2" stroke-linecap="round"/>
<path d="M28.5 33.816C28.2229 32.9025 27.2 31.0606 25.3256 31.0013C23.4512 30.9421 22.3275 32.8531 22 33.816" stroke="#012D42" stroke-width="2" stroke-linecap="round"/>
<path d="M23.472 20.696C23.472 20.056 23.576 19.496 23.784 19.016C24.008 18.52 24.272 18.104 24.576 17.768C24.896 17.432 25.312 17.032 25.824 16.568C26.464 16.008 26.936 15.528 27.24 15.128C27.544 14.712 27.696 14.216 27.696 13.64C27.696 12.856 27.392 12.232 26.784 11.768C26.176 11.288 25.336 11.048 24.264 11.048C22.392 11.048 20.96 11.68 19.968 12.944L18.216 11.696C18.888 10.832 19.744 10.168 20.784 9.704C21.84 9.24 23.056 9.008 24.432 9.008C26.176 9.008 27.56 9.392 28.584 10.16C29.608 10.912 30.12 11.952 30.12 13.28C30.12 13.936 30.008 14.52 29.784 15.032C29.576 15.528 29.32 15.944 29.016 16.28C28.712 16.616 28.304 17.016 27.792 17.48C27.136 18.072 26.648 18.592 26.328 19.04C26.024 19.488 25.872 20.04 25.872 20.696H23.472ZM24.696 26.144C24.248 26.144 23.872 26 23.568 25.712C23.28 25.408 23.136 25.04 23.136 24.608C23.136 24.176 23.28 23.816 23.568 23.528C23.872 23.224 24.248 23.072 24.696 23.072C25.144 23.072 25.512 23.224 25.8 23.528C26.088 23.816 26.232 24.176 26.232 24.608C26.232 25.04 26.08 25.408 25.776 25.712C25.488 26 25.128 26.144 24.696 26.144Z" fill="#012A3E"/>
</svg>
