<svg width="77" height="52" viewBox="0 0 77 52" fill="none" xmlns="http://www.w3.org/2000/svg">
<path d="M48 16H74.9835C75.7014 16 76.1854 16.7341 75.9026 17.3939L61.7597 50.3939C61.6022 50.7616 61.2406 51 60.8406 51H2.57698C1.84367 51 1.35976 50.2369 1.67245 49.5736L17.2296 16.5736C17.3947 16.2234 17.747 16 18.1341 16H20.5H22" stroke="#FE8F88" stroke-width="2"/>
<path d="M18.7293 21.0726C18.8946 20.723 19.2466 20.5 19.6334 20.5H69.4726C70.1933 20.5 70.6774 21.2394 70.3891 21.8999L59.2618 47.3999C59.1028 47.7644 58.7429 48 58.3453 48H7.57883C6.84506 48 6.36116 47.236 6.67476 46.5726L18.7293 21.0726Z" fill="#FE8F88"/>
<path d="M52.5 37.8735C52.2229 36.9413 51.2 35.0618 49.3256 35.0014C47.4512 34.9409 46.3275 36.8909 46 37.8735" stroke="#012F45" stroke-width="2" stroke-linecap="round"/>
<path d="M26.5 37.8735C26.2229 36.9413 25.2 35.0618 23.3256 35.0014C21.4512 34.9409 20.3275 36.8909 20 37.8735" stroke="#012F45" stroke-width="2" stroke-linecap="round"/>
<path d="M39.5 37.8721C39.7771 38.8043 40.8 40.6838 42.6744 40.7442C44.5488 40.8047 45.6725 38.8547 46 37.8721" stroke="#012F45" stroke-width="2" stroke-linecap="round"/>
<path d="M26.5 37.8721C26.7771 38.8043 27.8 40.6838 29.6744 40.7442C31.5488 40.8047 32.6725 38.8547 33 37.8721" stroke="#012F45" stroke-width="2" stroke-linecap="round"/>
<path d="M39.5 37.8735C39.2229 36.9413 38.2 35.0618 36.3256 35.0014C34.4512 34.9409 33.3275 36.8909 33 37.8735" stroke="#012F45" stroke-width="2" stroke-linecap="round"/>
<path d="M26 16.01V17.01H28V16.01H26ZM33.9 5.32106C33.9 5.87335 34.3477 6.32106 34.9 6.32106C35.4523 6.32106 35.9 5.87335 35.9 5.32106H33.9ZM28 16.01V4.95H26V16.01H28ZM33.9 4.95V5.32106H35.9V4.95H33.9ZM30.95 2C32.5792 2 33.9 3.32076 33.9 4.95H35.9C35.9 2.21619 33.6838 0 30.95 0V2ZM30.95 0C28.2162 0 26 2.21619 26 4.95H28C28 3.32076 29.3208 2 30.95 2V0Z" fill="#FE8F88"/>
<path d="M40.2202 16.01V17.01H42.2202V16.01H40.2202ZM48.1202 5.32106C48.1202 5.87335 48.5679 6.32106 49.1202 6.32106C49.6725 6.32106 50.1202 5.87335 50.1202 5.32106H48.1202ZM42.2202 16.01V4.95H40.2202V16.01H42.2202ZM48.1202 4.95V5.32106H50.1202V4.95H48.1202ZM45.1702 2C46.7995 2 48.1202 3.32076 48.1202 4.95H50.1202C50.1202 2.21619 47.904 0 45.1702 0V2ZM45.1702 0C42.4364 0 40.2202 2.21619 40.2202 4.95H42.2202C42.2202 3.32076 43.541 2 45.1702 2V0Z" fill="#FE8F88"/>
<line x1="27.4102" y1="11" x2="40.4102" y2="11" stroke="#FE8F88" stroke-width="2"/>
</svg>
