<svg width="65" height="52" viewBox="0 0 65 52" fill="none" xmlns="http://www.w3.org/2000/svg">
<path d="M30.0044 13.244C36.511 12.8703 43.3503 10.885 49.1131 12.8665C55.0818 14.9187 57.5209 19.4735 59.9513 23.5409C62.5136 27.8291 65.2164 32.3559 63.4154 36.802C61.563 41.375 56.3081 45.0995 50.1697 47.688C44.232 50.1919 37.0601 51.3825 30.0044 50.8912C23.3988 50.4312 17.2387 48.2549 12.7759 45.0842C8.82065 42.2742 9.031 38.186 7.08311 34.6064C5.06898 30.9051 -0.0185837 27.6213 1.18072 23.7759C1.78798 21.8289 3.40844 20.1305 5.54726 18.6711" stroke="#FE8F88" stroke-width="2"/>
<path fill-rule="evenodd" clip-rule="evenodd" d="M30.9402 17.9569C36.3107 17.6695 41.9558 16.1423 46.7124 17.6665C51.6389 19.2452 53.6521 22.7489 55.6582 25.8776C57.7732 29.1763 60.004 32.6584 58.5175 36.0785C56.9885 39.5962 52.6512 42.4612 47.5845 44.4523C42.6836 46.3784 36.7639 47.2942 30.9402 46.9163C25.4879 46.5625 20.4034 44.8884 16.7198 42.4494C13.4551 40.2878 13.6288 37.1431 12.021 34.3896C10.3585 31.5424 6.15926 29.0164 7.14917 26.0584C7.65039 24.5607 8.98792 23.2542 10.7533 22.1316C12.5618 20.9815 14.8194 20.0243 17.0869 19.2522C21.2539 17.8332 26.1684 18.2123 30.9402 17.9569Z" fill="#FE8F88"/>
<path d="M8 15.7098V16.7098H10V15.7098H8ZM15.9 5.23464C15.9 5.78692 16.3477 6.23464 16.9 6.23464C17.4523 6.23464 17.9 5.78692 17.9 5.23464H15.9ZM10 15.7098V4.95H8V15.7098H10ZM15.9 4.95V5.23464H17.9V4.95H15.9ZM12.95 2C14.5792 2 15.9 3.32076 15.9 4.95H17.9C17.9 2.21619 15.6838 0 12.95 0V2ZM12.95 0C10.2162 0 8 2.21619 8 4.95H10C10 3.32076 11.3208 2 12.95 2V0Z" fill="#FE8F88"/>
<path d="M22.2207 15.7098V16.7098H24.2207V15.7098H22.2207ZM30.1207 5.23464C30.1207 5.78692 30.5684 6.23464 31.1207 6.23464C31.673 6.23464 32.1207 5.78692 32.1207 5.23464H30.1207ZM24.2207 15.7098V4.95H22.2207V15.7098H24.2207ZM30.1207 4.95V5.23464H32.1207V4.95H30.1207ZM27.1707 2C28.7999 2 30.1207 3.32076 30.1207 4.95H32.1207C32.1207 2.21619 29.9045 0 27.1707 0V2ZM27.1707 0C24.4369 0 22.2207 2.21619 22.2207 4.95H24.2207C24.2207 3.32076 25.5415 2 27.1707 2V0Z" fill="#FE8F88"/>
<line x1="9.41016" y1="10.7803" x2="22.4102" y2="10.7803" stroke="#FE8F88" stroke-width="2"/>
<path d="M50.5 34.816C50.2229 33.9025 49.2 32.0606 47.3256 32.0013C45.4512 31.9421 44.3275 33.8531 44 34.816" stroke="#012D42" stroke-width="2" stroke-linecap="round"/>
<path d="M24.5 34.816C24.2229 33.9025 23.2 32.0606 21.3256 32.0013C19.4512 31.9421 18.3275 33.8531 18 34.816" stroke="#012D42" stroke-width="2" stroke-linecap="round"/>
<path d="M37.5 34.8146C37.7771 35.7281 38.8 37.57 40.6744 37.6293C42.5488 37.6885 43.6725 35.7775 44 34.8146" stroke="#012D42" stroke-width="2" stroke-linecap="round"/>
<path d="M24.5 34.8146C24.7771 35.7281 25.8 37.57 27.6744 37.6293C29.5488 37.6885 30.6725 35.7775 31 34.8146" stroke="#012D42" stroke-width="2" stroke-linecap="round"/>
<path d="M37.5 34.816C37.2229 33.9025 36.2 32.0606 34.3256 32.0013C32.4512 31.9421 31.3275 33.8531 31 34.816" stroke="#012D42" stroke-width="2" stroke-linecap="round"/>
</svg>
