<svg xmlns="http://www.w3.org/2000/svg" width="57" height="75" viewBox="0 0 57 75"><g><g><g><g><g><path fill="#24b6bc" d="M21.855 48.902c-1.648-3.654-3.296-7.309-4.908-10.963A1776.64 1776.64 0 0 1 .61.072h16.551c3.762 9.852 7.595 19.775 11.536 30.093C32.638 19.883 36.436 9.96 40.27 0h16.623A30290.62 30290.62 0 0 0 35.54 48.938c-1.146.036-2.293.107-3.475.143-.896.143-1.863.25-2.866.323a28.7 28.7 0 0 1-7.344-.502z"/></g><g><path fill="#02a4ae" d="M21.86 48.907c2.293-6.234 4.55-12.468 6.843-18.737 2.293 6.27 4.55 12.503 6.842 18.773-.042.08-.078.164-.107.25-.86 1.97-1.756 4.156-3.798 5.23a6.124 6.124 0 0 1-2.65.682 6.563 6.563 0 0 1-3.01-.574c-1.505-.752-2.221-2.113-3.403-4.227-.323-.61-.574-1.075-.717-1.397z"/></g><g><path fill="#24b6bc" d="M35.18 49.792l.107-.322"/></g></g><g><path fill="#fff" d="M20.852 65.381l2.4 6.019 2.401-6.019h1.684l-4.084 9.172-4.084-9.172zm-8.347 8.133a4.069 4.069 0 0 1-1.433-1.577 5.305 5.305 0 0 1-.502-2.328c-.021-.81.163-1.611.538-2.329a4.052 4.052 0 0 1 1.469-1.54 4.446 4.446 0 0 1 2.22-.574 3.988 3.988 0 0 1 2.15.538c.604.352 1.09.876 1.398 1.504.332.73.492 1.527.465 2.329v.466h-6.756c.037.43.14.853.308 1.254.188.448.514.825.931 1.074.446.257.955.381 1.469.359.54.006 1.07-.13 1.54-.394a3.5 3.5 0 0 0 1.147-1.147l1.218.752a4.27 4.27 0 0 1-1.684 1.613 5.016 5.016 0 0 1-2.364.537 3.525 3.525 0 0 1-2.114-.537zm4.406-5.84a2.468 2.468 0 0 0-.86-.86c-.38-.219-.814-.33-1.253-.322a2.794 2.794 0 0 0-1.469.358c-.407.246-.73.608-.931 1.039a4.47 4.47 0 0 0-.27.86h5.099a2.69 2.69 0 0 0-.315-1.075zm-15.01 3.618c.244.448.619.81 1.074 1.04.438.243.932.367 1.433.358.455 0 .9-.125 1.29-.359.43-.25.788-.609 1.04-1.039a3.088 3.088 0 0 0 .393-1.683 3.543 3.543 0 0 0-.394-1.684 2.887 2.887 0 0 0-1.039-1.04 2.508 2.508 0 0 0-1.29-.357c-.5-.01-.995.114-1.433.358-.44.25-.81.607-1.074 1.039a3.44 3.44 0 0 0-.394 1.684 3.342 3.342 0 0 0 .394 1.683zM.575 67.244c.37-.639.902-1.17 1.54-1.54a4.3 4.3 0 0 1 2.114-.538 3.253 3.253 0 0 1 1.863.538c.443.309.81.712 1.075 1.18v5.464c-.26.466-.627.867-1.075 1.166a3.253 3.253 0 0 1-1.863.537 4.299 4.299 0 0 1-2.113-.537 3.977 3.977 0 0 1-1.54-1.54 4.625 4.625 0 0 1-.574-2.365 5.015 5.015 0 0 1 .573-2.365zm6.771 0c.316.748.474 1.553.466 2.365.03.813-.13 1.623-.466 2.364a3.374 3.374 0 0 1-.179.375v1.56h1.469V59.47H7.167v7.413c.066.117.126.237.18.361z"/></g><g><path fill="#fff" d="M39.343 69.609a3.44 3.44 0 0 1 .394-1.684c.264-.432.634-.79 1.075-1.04a2.838 2.838 0 0 1 1.433-.357c.454 0 .9.124 1.29.358.43.25.787.609 1.038 1.039.25.485.385 1.021.394 1.566v-2.67a3.615 3.615 0 0 0-1.039-1.117 3.253 3.253 0 0 0-1.862-.538 4.299 4.299 0 0 0-2.114.538c-.64.37-1.17.901-1.54 1.54a5.162 5.162 0 0 0 0 4.73c.36.646.893 1.18 1.54 1.54a4.299 4.299 0 0 0 2.114.537 3.253 3.253 0 0 0 1.862-.537 3.374 3.374 0 0 0 1.04-1.103v-2.47c-.026.473-.16.936-.395 1.351-.25.43-.609.788-1.039 1.04-.39.233-.835.357-1.29.358-.5.009-.995-.115-1.432-.359a2.508 2.508 0 0 1-1.075-1.039 2.74 2.74 0 0 1-.394-1.683zm5.624 0v-.118.45a3.09 3.09 0 0 0 0-.332zm.215-2.365c.316.748.475 1.553.466 2.365.03.813-.13 1.623-.466 2.364a3.374 3.374 0 0 1-.215.438v1.497h1.47V59.47h-1.47v7.352c.08.135.153.276.215.422zm-15.978 2.4c0-.55.135-1.09.394-1.576.24-.448.6-.82 1.04-1.075.458-.26.977-.395 1.504-.394a2.941 2.941 0 0 1 1.504.394c.44.255.8.627 1.04 1.075a3.35 3.35 0 0 1 0 3.153c-.24.448-.6.82-1.04 1.075-.458.26-.977.395-1.504.394a2.94 2.94 0 0 1-1.505-.394 2.73 2.73 0 0 1-1.039-1.075 3.35 3.35 0 0 1-.394-1.577zm-1.469 0a4.45 4.45 0 0 0 .573 2.293 4.162 4.162 0 0 0 1.577 1.577 4.41 4.41 0 0 0 2.257.573 4.234 4.234 0 0 0 2.257-.573 4.162 4.162 0 0 0 1.576-1.577 4.528 4.528 0 0 0-3.833-6.735 4.32 4.32 0 0 0-2.257.573 4.432 4.432 0 0 0-1.577 1.577 4.052 4.052 0 0 0-.573 2.292z"/></g><g><path fill="#fff" d="M50.26 71.297c.245.447.62.81 1.075 1.039.438.244.932.367 1.433.358.455 0 .9-.124 1.29-.358.43-.251.788-.609 1.04-1.04a3.088 3.088 0 0 0 .393-1.683 3.543 3.543 0 0 0-.394-1.684 2.887 2.887 0 0 0-1.039-1.039 2.508 2.508 0 0 0-1.29-.358c-.5-.009-.995.115-1.433.358-.44.25-.81.607-1.074 1.04a3.44 3.44 0 0 0-.394 1.683 3.343 3.343 0 0 0 .394 1.684zm-1.325-4.048c.37-.64.902-1.17 1.54-1.54a4.299 4.299 0 0 1 2.114-.538 3.253 3.253 0 0 1 1.863.537c.485.338.878.79 1.147 1.312v5.196a3.375 3.375 0 0 1-1.147 1.302 3.253 3.253 0 0 1-1.863.538 4.299 4.299 0 0 1-2.113-.538 3.977 3.977 0 0 1-1.54-1.54 4.625 4.625 0 0 1-.574-2.365 5.016 5.016 0 0 1 .573-2.364zm6.771 0c.316.748.474 1.552.466 2.364.03.814-.13 1.623-.466 2.365-.033.08-.069.16-.107.238v1.696h1.397v-8.526h-1.397v1.634c.038.075.074.151.107.229z"/></g></g></g></g></svg>