<svg width="17" height="12" viewBox="0 0 17 12" fill="none" xmlns="http://www.w3.org/2000/svg">
<path d="M1.30759 0C1.13402 0 0.968483 0.0365078 0.817204 0.100962L8.11173 6.98081C8.36599 7.22088 8.64813 7.22062 8.9018 6.98081L16.1827 0.100962C16.0314 0.0365078 15.8659 0 15.6923 0H1.30759ZM0.013513 1.18989C0.00523086 1.25299 0 1.31906 0 1.38462V10.6154C0 10.8048 0.0377273 10.985 0.102175 11.1491L5.13545 6.02888L0.0136219 1.18989H0.013513ZM16.9864 1.18989L11.8782 6.02168L16.9046 11.1419C16.967 10.98 17 10.8016 17 10.6154V1.38462C17 1.31906 16.9946 1.25299 16.9865 1.18989H16.9864ZM10.8974 6.95196L9.7736 8.01927C9.05916 8.69478 7.95429 8.69365 7.23993 8.01927L6.11612 6.95916L1.15775 11.9928C1.2062 11.9986 1.25766 12 1.30759 12H15.6923C15.7399 12 15.7891 11.9977 15.8353 11.9928L10.8974 6.95196Z" fill="#FE8F88"/>
</svg>
