<svg width="46" height="50" viewBox="0 0 46 50" fill="none" xmlns="http://www.w3.org/2000/svg">
<path d="M9.31103 27.8218C12.6334 27.692 15.6016 29.2281 17.3431 31.6296V7.91304C17.3431 7.91029 17.3415 7.90802 17.3415 7.90526C17.3415 7.90354 17.3425 7.90211 17.3425 7.90039C17.2532 3.55038 13.3669 0 8.67428 0C6.3537 0 4.16858 0.84546 2.52137 2.38044C0.900149 3.90203 0.00585938 5.92019 0.00585938 8.06042V33.0293C0.344467 32.4981 0.727965 31.9884 1.16635 31.5124C3.21601 29.2871 6.18437 27.9419 9.31103 27.8218Z" fill="#FE8F88"/>
<path d="M18.9561 8.71179V36.2209C18.9561 36.2256 18.9535 36.2294 18.9534 36.2341C19.02 38.047 18.3659 39.797 17.1045 41.1669C15.7408 42.6475 13.7672 43.5422 11.6895 43.6218C8.25886 43.7501 5.35902 41.2279 5.21726 37.9918C5.16252 36.7427 5.60986 35.5361 6.47737 34.5946C7.40198 33.5904 8.73889 32.9836 10.1451 32.9297C12.509 32.8399 14.4909 34.5804 14.589 36.8104C14.6272 37.6878 14.3137 38.534 13.7061 39.194C13.0623 39.893 12.1329 40.3155 11.1563 40.3529C10.7051 40.3947 10.3369 40.0229 10.3195 39.5784C10.3022 39.1334 10.6491 38.7585 11.0941 38.7416C11.645 38.7203 12.1644 38.4868 12.5196 38.1013C12.8343 37.7595 12.9969 37.3263 12.9776 36.8809C12.9181 35.5346 11.6801 34.4891 10.2073 34.541C9.22679 34.5788 8.29982 34.9966 7.66385 35.6874C7.08932 36.3107 6.7928 37.1042 6.82863 37.9209C6.9318 40.2738 9.0803 42.1041 11.6277 42.0104C13.2796 41.947 14.8434 41.2413 15.918 40.0741C16.8978 39.0105 17.4038 37.6543 17.3423 36.2564C17.1703 32.3311 13.5703 29.282 9.37328 29.4332C6.6723 29.5372 4.11347 30.6933 2.35285 32.6048C0.739904 34.3567 -0.0929545 36.5911 0.00824843 38.8971C0.288231 45.2776 6.08635 50.2323 12.9311 49.9916L45.3232 49.9909V8.71179H18.9561Z" fill="#FE8F88"/>
<path d="M28.8146 45.5C29.7281 45.2229 31.57 44.2 31.6293 42.3256C31.6885 40.4512 29.7775 39.3275 28.8146 39" stroke="#012D42" stroke-width="2" stroke-linecap="round"/>
<path d="M28.8146 19.5C29.7281 19.2229 31.57 18.2 31.6293 16.3256C31.6885 14.4512 29.7775 13.3275 28.8146 13" stroke="#012D42" stroke-width="2" stroke-linecap="round"/>
<path d="M28.816 32.5C27.9025 32.7771 26.0606 33.8 26.0013 35.6744C25.9421 37.5488 27.8531 38.6725 28.816 39" stroke="#012D42" stroke-width="2" stroke-linecap="round"/>
<path d="M28.816 19.5C27.9025 19.7771 26.0606 20.8 26.0013 22.6744C25.9421 24.5488 27.8531 25.6725 28.816 26" stroke="#012D42" stroke-width="2" stroke-linecap="round"/>
<path d="M28.8146 32.5C29.7281 32.2229 31.57 31.2 31.6293 29.3256C31.6885 27.4512 29.7775 26.3275 28.8146 26" stroke="#012D42" stroke-width="2" stroke-linecap="round"/>
</svg>
