<svg width="50" height="50" viewBox="0 0 50 50" fill="none" xmlns="http://www.w3.org/2000/svg">
<path d="M20.637 49.621L21.409 45.2465C22.5685 45.45 23.7615 45.5565 24.979 45.5565C25.3845 45.5565 25.793 45.5465 26.2015 45.522C26.637 45.4965 27.0665 45.458 27.4915 45.406L28.0265 49.8185C27.5095 49.88 26.988 49.9265 26.461 49.9585C25.9635 49.9875 25.469 50 24.979 50C23.5025 50 22.05 49.8705 20.637 49.621ZM28.4845 45.2615C30.0935 44.9865 31.633 44.527 33.0855 43.9075L34.833 47.991C33.065 48.7485 31.189 49.308 29.233 49.6415L28.4845 45.2615ZM13.937 47.4245L15.907 43.441C17.3325 44.146 18.846 44.688 20.427 45.048L19.441 49.381C17.516 48.943 15.672 48.281 13.937 47.4245ZM33.9935 43.49C35.4445 42.785 36.7985 41.9125 38.0315 40.901V40.9L40.8505 44.334C39.3535 45.5655 37.7075 46.625 35.9395 47.486L33.9935 43.49ZM8.1245 43.4445L11.1225 40.1665C12.305 41.2485 13.6125 42.1925 15.0185 42.973V42.975L12.8565 46.8575C11.1485 45.9055 9.5605 44.758 8.1245 43.4445ZM33.084 43.907H33.0865C33.0865 43.907 33.0855 43.907 33.0855 43.9075L33.084 43.907ZM38.7895 40.2465C39.98 39.168 41.0415 37.9535 41.951 36.6315L45.613 39.1475C44.5075 40.7555 43.2175 42.2305 41.773 43.539L38.7895 40.2465ZM3.646 38.008L7.438 35.6945C8.278 37.069 9.273 38.3355 10.3995 39.4715L7.245 42.601C5.878 41.2205 4.667 39.681 3.646 38.008ZM42.4995 35.7895C43.338 34.434 44.0215 32.9755 44.5285 31.4415L48.7475 32.8335C48.129 34.702 47.2985 36.4775 46.2785 38.126L42.4995 35.7895ZM0.8645 31.5325L5.1545 30.376C5.5775 31.9465 6.1805 33.436 6.939 34.8265V34.8285L3.037 36.9535C2.114 35.2605 1.3795 33.4445 0.8645 31.5325ZM44.819 30.4805C45.24 28.9585 45.4885 27.3705 45.5465 25.737L49.9865 25.8895C49.917 27.8765 49.614 29.811 49.101 31.6645L44.819 30.4805ZM0.043 26.464C0.015 25.968 0 25.4735 0 24.98C0 24.835 0.001 24.689 0.003 24.544L4.446 24.6205C4.443 24.7405 4.443 24.861 4.443 24.98C4.443 25.3845 4.455 25.791 4.479 26.203C4.542 27.298 4.692 28.366 4.917 29.403L0.5755 30.3495C0.301 29.087 0.122 27.7895 0.043 26.464ZM45.522 23.799C45.4445 22.4815 45.2465 21.2035 44.9365 19.9705L49.2455 18.888C49.6225 20.388 49.864 21.942 49.957 23.54C49.9805 23.92 49.994 24.2965 49.9985 24.673L45.555 24.7335C45.5515 24.422 45.5395 24.1095 45.522 23.799ZM0.054 23.3285C0.185 21.3465 0.5485 19.421 1.1195 17.5835L5.363 18.9015C4.8935 20.411 4.595 21.991 4.4865 23.62L0.054 23.3285ZM44.9365 19.9695V19.9705V19.9695ZM42.7435 14.613L46.5755 12.364C47.5535 14.0305 48.3445 15.822 48.9195 17.714L44.6675 19.006C44.196 17.4525 43.547 15.98 42.7435 14.613ZM5.6825 17.951L1.51 16.4265C2.1865 14.5785 3.0725 12.8325 4.1425 11.2155L7.849 13.668C6.968 14.9985 6.2385 16.436 5.6845 17.951H5.6825ZM39.1385 10.0785L42.1925 6.853C43.6035 8.188 44.8625 9.691 45.935 11.329L42.217 13.7615C41.335 12.415 40.3 11.18 39.1385 10.0785ZM4.8415 10.216C5.9955 8.644 7.33 7.2095 8.817 5.944L11.695 9.3295C10.4715 10.371 9.3725 11.55 8.4225 12.8445L4.8415 10.216ZM34.412 6.7225V6.7215L36.4495 2.774C38.189 3.673 39.812 4.7695 41.288 6.0365L38.393 9.407C37.179 8.3635 35.843 7.4595 34.412 6.7225ZM9.762 5.1795C11.296 3.9975 12.975 2.988 14.7695 2.184L16.5885 6.237C15.1155 6.898 13.735 7.727 12.4725 8.6995L9.762 5.1795ZM28.942 4.8215L29.789 0.459C31.728 0.836 33.594 1.4395 35.353 2.2405L33.509 6.2835C32.065 5.625 30.534 5.1295 28.942 4.8215ZM17.5115 5.849L15.896 1.712C17.6835 1.014 19.5765 0.513 21.5445 0.24L22.1555 4.641C20.5345 4.8655 18.9805 5.276 17.5115 5.851V5.849ZM25.0215 4.4435C24.617 4.4435 24.21 4.455 23.7985 4.48C23.5805 4.4935 23.365 4.5085 23.151 4.528L22.7555 0.102C23.0145 0.08 23.276 0.06 23.537 0.045C24.0335 0.015 24.5285 0 25.0215 0C26.2285 0 27.42 0.087 28.587 0.255L27.954 4.653C26.994 4.5155 26.015 4.4435 25.0215 4.4435Z" fill="#FE8F88"/>
<path d="M20.9503 43.8176L21.8813 39.4736C22.8848 39.6891 23.9278 39.8016 25.0003 39.8016C25.4618 39.8016 25.9183 39.7811 26.3663 39.7396L26.7708 44.1631C26.1878 44.2181 25.5968 44.2461 25.0003 44.2461C23.6123 44.2461 22.2578 44.0976 20.9503 43.8176ZM27.3243 39.6211C28.8368 39.3826 30.2718 38.9156 31.5953 38.2561L33.5788 42.2311C31.8573 43.0916 29.9848 43.7001 28.0148 44.0101L27.3243 39.6211ZM14.4248 41.0796L16.8683 37.3701C18.1113 38.1896 19.4828 38.8236 20.9458 39.2401L19.7313 43.5141C17.8228 42.9721 16.0388 42.1441 14.4248 41.0796ZM32.4448 37.7981C33.7468 37.0376 34.9263 36.0831 35.9368 34.9741L39.2183 37.9681C37.9058 39.4096 36.3768 40.6471 34.6813 41.6356L32.4448 37.7981ZM9.33084 36.1751L12.9483 33.5921C13.8218 34.8181 14.8798 35.9056 16.0808 36.8121H16.0793L13.3988 40.3551C11.8403 39.1771 10.4673 37.7661 9.33084 36.1751ZM36.5653 34.2391C37.4988 33.0726 38.2573 31.7641 38.8053 30.3501V30.3516L42.9483 31.9581C42.2333 33.7981 41.2458 35.5001 40.0338 37.0146L36.5653 34.2391ZM6.34884 29.7576L10.6558 28.6626C11.0308 30.1396 11.6288 31.5271 12.4108 32.7896H12.4123L8.63434 35.1311C7.61834 33.4896 6.83884 31.6796 6.34884 29.7576ZM39.1253 29.4401C39.5643 28.0396 39.8003 26.5521 39.8003 25.0021H39.8028H44.2448C44.2448 27.0066 43.9373 28.9466 43.3643 30.7691L39.1253 29.4401ZM5.75684 25.0016C5.75684 24.2241 5.80334 23.4576 5.89284 22.7021L10.3048 23.2281C10.2348 23.8086 10.2008 24.4006 10.2008 25.0016C10.2008 25.9316 10.2853 26.8396 10.4493 27.7201L6.08134 28.5311C5.86684 27.3861 5.75684 26.2046 5.75684 25.0016ZM38.8088 19.6601L42.9533 18.0556C43.6448 19.8426 44.0763 21.7606 44.2053 23.7576L39.7698 24.0406C39.6728 22.5021 39.3393 21.0331 38.8088 19.6601ZM6.08234 21.4626C6.44634 19.5051 7.10684 17.6506 8.01334 15.9506L11.9328 18.0441C11.2348 19.3501 10.7288 20.7721 10.4503 22.2751L6.08234 21.4626ZM35.9448 15.0361L39.2293 12.0431C40.5373 13.4791 41.6308 15.1156 42.4608 16.9006L38.4318 18.7721C37.7938 17.4016 36.9523 16.1436 35.9448 15.0361ZM8.64084 14.8631C9.67584 13.1981 10.9553 11.7036 12.4318 10.4281L15.3348 13.7916C14.1978 14.7741 13.2118 15.9256 12.4158 17.2061L8.64084 14.8631ZM31.6053 11.7511H31.6043L33.5893 7.77608C35.3498 8.65358 36.9538 9.79508 38.3533 11.1456L35.2708 14.3431C34.1923 13.3026 32.9568 12.4261 31.6053 11.7511ZM13.4073 9.64058C14.9528 8.47158 16.6823 7.53058 18.5433 6.86808L20.0348 11.0536C18.6053 11.5616 17.2763 12.2851 16.0858 13.1846L13.4073 9.64058ZM26.3748 10.2621L26.7818 5.83858C28.7718 6.02058 30.6763 6.50758 32.4463 7.25158L30.7258 11.3471C29.3673 10.7781 27.9073 10.4041 26.3748 10.2621ZM19.7413 6.48458C21.4148 6.01008 23.1803 5.75708 25.0003 5.75708C25.1768 5.75708 25.3543 5.75808 25.5293 5.76458L25.4108 10.2046C25.2738 10.2011 25.1378 10.1991 25.0008 10.2006C23.5938 10.2006 22.2388 10.3941 20.9533 10.7591L19.7413 6.48458Z" fill="#FE8F88"/>
<path d="M25.0018 38.4414C24.9433 38.4414 24.8878 38.4414 24.8308 38.4414L24.8863 33.9974C24.9243 33.9984 24.9628 33.9984 25.0018 33.9984C26.4083 33.9974 27.7248 33.6784 28.9068 33.1099L30.8378 37.1104C29.0758 37.9629 27.0918 38.4414 25.0118 38.4414C25.0088 38.4414 25.0053 38.4414 25.0018 38.4414ZM17.7063 36.2899L20.1203 32.5614C21.2628 33.2999 22.5753 33.7849 23.9953 33.9434L23.5063 38.3579C21.3858 38.1239 19.4093 37.3934 17.7063 36.2899ZM29.6888 32.6834C30.8748 31.9579 31.8828 30.9624 32.6223 29.7854V29.7869L36.3818 32.1529C35.2778 33.9099 33.7783 35.3899 32.0058 36.4734L29.6888 32.6834ZM12.8178 30.6839L16.8443 28.8034C17.4343 30.0679 18.3138 31.1759 19.3963 32.0404L16.6263 35.5134C15.0128 34.2264 13.7028 32.5774 12.8178 30.6839ZM33.0588 29.0104C33.6603 27.8029 33.9983 26.4499 33.9983 25.0014C33.9983 24.6529 33.9783 24.3104 33.9418 23.9729L38.3558 23.4724C38.4123 23.9749 38.4418 24.4849 38.4418 25.0014C38.4418 27.1469 37.9358 29.1894 37.0343 30.9924L33.0588 29.0104ZM11.5608 25.0009C11.5608 24.4379 11.5958 23.8814 11.6633 23.3349L16.0728 23.8814C16.0268 24.2474 16.0043 24.6204 16.0043 25.0009C16.0043 26.0504 16.1823 27.0484 16.5078 27.9799H16.5083L12.3148 29.4514C11.8258 28.0564 11.5608 26.5549 11.5608 25.0009ZM32.0283 19.3809V19.3794L35.4948 16.6019C36.7703 18.1949 37.6943 20.0879 38.1413 22.1614L33.7983 23.0964C33.4993 21.7139 32.8843 20.4494 32.0283 19.3809ZM11.8918 22.0244C12.3583 19.9589 13.3028 18.0739 14.5958 16.4929L18.0333 19.3069C17.1658 20.3674 16.5368 21.6264 16.2258 23.0054L11.8918 22.0244ZM27.9598 16.5009L29.4213 12.3054C31.4073 12.9954 33.1773 14.1384 34.6143 15.6069L31.4368 18.7109C30.4718 17.7259 29.2843 16.9614 27.9598 16.5009ZM18.6308 18.6459L18.6318 18.6454L18.6323 18.6459H18.6308ZM15.4863 15.5074C16.9363 14.0544 18.7173 12.9314 20.7123 12.2604L22.1303 16.4709C20.7993 16.9179 19.6063 17.6704 18.6318 18.6454L15.4863 15.5074ZM25.0018 16.0024C24.3048 16.0039 23.6303 16.0819 22.9843 16.2294L21.9943 11.8984C22.9623 11.6779 23.9708 11.5604 25.0018 11.5604C26.0803 11.5604 27.1343 11.6884 28.1443 11.9304L27.1083 16.2509C26.4338 16.0894 25.7298 16.0039 25.0018 16.0024Z" fill="#FE8F88"/>
<path d="M22.6999 32.5525L23.9944 28.3C24.3104 28.3965 24.6459 28.449 25.0014 28.449C25.6564 28.449 26.2524 28.271 26.7704 27.962H26.7719L29.0564 31.771C27.8739 32.482 26.4764 32.8925 25.0014 32.8925C24.2054 32.893 23.4294 32.7735 22.6999 32.5525ZM17.3404 26.9015L21.6539 25.834C21.8859 26.7825 22.5274 27.5895 23.3734 28.043L21.2724 31.958C19.3334 30.916 17.8849 29.096 17.3404 26.9015ZM27.3144 27.559C28.0159 26.921 28.4499 26.022 28.4499 25.001C28.4499 24.8895 28.4439 24.7775 28.4344 24.6695L32.8574 24.251C32.8809 24.4995 32.8929 24.749 32.8929 25.001C32.8929 27.3165 31.8869 29.4165 30.2964 30.853L27.3144 27.559ZM17.1094 25.001C17.1084 22.8215 18.0009 20.8285 19.4344 19.4075L22.5694 22.5565C21.9374 23.188 21.5539 24.038 21.5524 25.001C21.5524 25.0555 21.5539 25.1115 21.5574 25.1675L17.1194 25.3755C17.1119 25.2505 17.1094 25.1275 17.1094 25.001ZM26.4829 21.8845L28.3929 17.874C30.3889 18.8265 31.9164 20.5825 32.5629 22.736L28.3069 24.01C28.0284 23.077 27.3524 22.2985 26.4829 21.8845ZM20.6269 18.4315C21.8769 17.597 23.3914 17.108 25.0014 17.1095C25.6664 17.1095 26.3189 17.1925 26.9394 17.349L25.8509 21.657C25.5814 21.588 25.2974 21.552 25.0014 21.552C24.2864 21.5535 23.6414 21.7625 23.0924 22.128L20.6269 18.4315ZM26.4819 21.884L26.4829 21.8845L26.4819 21.8855V21.884Z" fill="#FE8F88"/>
</svg>
