<svg width="53" height="11" viewBox="0 0 53 11" fill="none" xmlns="http://www.w3.org/2000/svg">
<path d="M1 5.49367C1.43367 6.95238 3.03431 9.89346 5.96751 9.98808C8.90071 10.0827 10.659 7.03123 11.1716 5.49367" stroke="white" stroke-width="2"/>
<path d="M21.3428 5.49657C20.9091 4.03785 19.3085 1.09677 16.3753 1.00215C13.4421 0.907531 11.6837 3.959 11.1712 5.49657" stroke="white" stroke-width="2"/>
<path d="M41.6865 5.49657C41.2529 4.03785 39.6522 1.09677 36.719 1.00215C33.7858 0.907531 32.0275 3.959 31.515 5.49657" stroke="white" stroke-width="2"/>
<path d="M21.3428 5.49416C21.7764 6.95287 23.3771 9.89395 26.3103 9.98857C29.2435 10.0832 31.0018 7.03172 31.5143 5.49416" stroke="white" stroke-width="2"/>
<path d="M41.6865 5.49416C42.1202 6.95287 43.7208 9.89395 46.654 9.98857C49.5872 10.0832 51.3456 7.03172 51.8581 5.49416" stroke="white" stroke-width="2"/>
</svg>
